<?xml version="1.0" encoding="UTF-8"?>
<svg width="64" height="64" viewBox="0 0 64 64" xmlns="http://www.w3.org/2000/svg" role="img" aria-labelledby="title">
  <title id="title">柴犬抱骰子</title>
  <g fill="none" fill-rule="evenodd">
    <circle cx="32" cy="26" r="14" fill="#F3C37A" />
    <path d="M20 18c-2-3 2-8 6-8s6 3 6 3" stroke="#8B5A2B" stroke-width="2" stroke-linecap="round" stroke-linejoin="round"/>
    <path d="M44 18c2-3-2-8-6-8s-6 3-6 3" stroke="#8B5A2B" stroke-width="2" stroke-linecap="round" stroke-linejoin="round"/>
    <circle cx="27" cy="25" r="2" fill="#2D2D2D" />
    <circle cx="37" cy="25" r="2" fill="#2D2D2D" />
    <path d="M28 32c1.5 2 4.5 2 6 0" stroke="#8B5A2B" stroke-width="1.5" stroke-linecap="round"/>

    <!-- dice -->
    <rect x="40" y="34" width="10" height="10" rx="1.2" fill="#FFFFFF" stroke="#D1D5DB" stroke-width="1" transform="rotate(-12 45 39)" />
    <circle cx="43" cy="37" r="0.9" fill="#111827" />
    <circle cx="47" cy="41" r="0.9" fill="#111827" />
    <circle cx="49" cy="35" r="0.9" fill="#111827" />
  </g>
</svg>
